<svg id="Layer_1" data-name="Layer 1" xmlns="http://www.w3.org/2000/svg" viewBox="0 0 297 70.979"><defs><style>.cls-1{fill:#dd7deb;}.cls-2{fill:#01d75f;}.cls-3{fill:#393838;}</style></defs><title>logo</title><ellipse class="cls-1" cx="27.361" cy="24.902" rx="21.336" ry="20.99"/><ellipse class="cls-2" cx="21.336" cy="49.927" rx="21.336" ry="20.99"/><path class="cls-3" d="M80.423,71.275H78.564q0.39-4.423,5.185-26t5.967-32.294a9.333,9.333,0,0,0-1.027-3.785,18.589,18.589,0,0,0-2.1-3.588L85.607,4.229,85.9,2.755q5.477-1.671,18.878-1.672A9.719,9.719,0,0,1,106.05,5.7a49.925,49.925,0,0,1-.391,5.6Q117.884,1.083,125.613,1.083a10.739,10.739,0,0,1,8.216,3.343q3.13,3.344,3.13,9.34T132.8,36.622q-4.16,16.862-4.157,23.545,0,2.853.978,2.851,0.881,0,4.891-1.967l1.272-.589,1.956,3.637a41.876,41.876,0,0,1-8.51,5.752,18.041,18.041,0,0,1-7.972,2.211,7.333,7.333,0,0,1-5.82-2.6,10.456,10.456,0,0,1-2.25-7.078q0-4.474,4.059-22.267T121.309,17.4q0-4.915-3.815-4.916-5.773,0-13.107,5.8-1.078,5.212-4.011,17.4-6.456,26.84-6.456,33.622Q90.106,71.277,80.423,71.275Z" transform="translate(-0.568 -1.083)"/><path class="cls-3" d="M171,30.183a15.457,15.457,0,0,0,1.076-2.556q4.6,0,12.325,2.752a136.917,136.917,0,0,0-3.913,17.057,89.881,89.881,0,0,0-1.467,12.682q0,3.785.783,3.784a20.143,20.143,0,0,0,4.3-1.867l1.173-.59,1.761,3.44q-0.879.789-2.3,1.967a32.814,32.814,0,0,1-5.331,3.195,15.7,15.7,0,0,1-7.042,2.015q-6.067,0-7.043-5.5-6.26,5.507-11.3,5.5a10.916,10.916,0,0,1-8.509-3.932q-3.473-3.932-3.473-12.387,0-13.172,5.38-20.792t13.009-7.619A21.325,21.325,0,0,1,171,30.183ZM159.847,63.706a10.1,10.1,0,0,0,5.282-1.868,119.964,119.964,0,0,1,4.6-27.428,12.994,12.994,0,0,0-4.988-1.278q-3.522,0-6.016,6.931a44.854,44.854,0,0,0-2.495,15.287Q156.228,63.706,159.847,63.706Z" transform="translate(-0.568 -1.083)"/><path class="cls-3" d="M191.44,71.177h-1.859q0-4.62,2.788-17.7t2.788-14.844a11.641,11.641,0,0,0-2.74-6.881l-0.88-1.18,0.1-1.278q5.283-1.474,16.922-1.474,1.368,1.868,1.37,6.095,8.8-6.584,13.987-6.586,6.551,0,7.727,6.783a44.764,44.764,0,0,1,6.9-4.473,16.368,16.368,0,0,1,7.629-2.31,7.7,7.7,0,0,1,5.624,2.212,8.227,8.227,0,0,1,2.251,6.144q0,3.933-2.152,12.977t-2.152,12.141q0,3.1.881,3.1a16.975,16.975,0,0,0,4.01-1.867l1.076-.59,1.761,3.44a28.578,28.578,0,0,1-6.9,4.867,16.858,16.858,0,0,1-7.679,2.31q-7.336,0-7.336-8.356,0-3.046,2.1-12.24t2.1-11.993q0-2.8-1.663-2.8a12.956,12.956,0,0,0-6.456,2.162q-0.2,1.967-2.69,13.37t-2.493,17.7q-2.838,1.279-13.3,1.278a39.971,39.971,0,0,1-.2-5.211q0-4.129,2.3-14.058t2.3-12.584q0-2.654-1.859-2.654a11.867,11.867,0,0,0-6.456,2.359q-0.2.885-1.956,8.652-3.522,15.533-3.521,22.119Q200.339,71.179,191.44,71.177Z" transform="translate(-0.568 -1.083)"/><path class="cls-3" d="M260.2,53.874q0-12.288,7.385-19.415t16.774-7.128a15.147,15.147,0,0,1,9.488,2.851,9.119,9.119,0,0,1,3.716,7.619,13.113,13.113,0,0,1-2.4,8.012,16.737,16.737,0,0,1-5.819,5.013,44.15,44.15,0,0,1-12.716,4.325l-2.348.3q0.683,9.242,7.531,9.241a12.259,12.259,0,0,0,4.989-1.179,19.076,19.076,0,0,0,4.108-2.36l1.467-1.179,2.348,3.145a15.9,15.9,0,0,1-3.13,2.851,42.773,42.773,0,0,1-4.4,2.95,25.2,25.2,0,0,1-12.422,3.145,13,13,0,0,1-10.662-4.817Q260.2,62.429,260.2,53.874Zm21.91-7.471a12.635,12.635,0,0,0,2.935-8.652q0-5.308-3.13-5.308-3.719,0-5.722,6.341a39.4,39.4,0,0,0-2.006,11.846A13.236,13.236,0,0,0,282.114,46.4Z" transform="translate(-0.568 -1.083)"/></svg>